<svg xmlns="http://www.w3.org/2000/svg" id="Layer_1" viewBox="0 0 100 100">
  <style>
    .st0{fill:url(#SVGID_1_);} .st1{fill:#FFFFFF;}
  </style>
  <linearGradient id="SVGID_1_" x1="16.87" x2="72.41" y1="72.57" y2="17.03" gradientUnits="userSpaceOnUse">
    <stop offset="0" stop-color="#2D2B73"/>
    <stop offset="1" stop-color="#4DF1B6"/>
  </linearGradient>
  <path d="M80.9 77.1c.2-.2.4-.5.6-.7.2-.3.4-.5.6-.8.2-.3.4-.5.6-.8.2-.3.4-.6.6-.8.2-.3.4-.5.6-.8l.6-.9c.2-.3.3-.5.5-.8.2-.3.3-.6.5-.9.2-.3.3-.5.5-.8.2-.3.3-.6.5-.9.1-.3.3-.6.4-.8.2-.3.3-.6.4-1 .1-.3.3-.6.4-.9.1-.3.3-.7.4-1l.3-.9c.1-.3.2-.7.4-1l.3-.9.3-1.1.3-.9.3-1.1c.1-.3.1-.6.2-.9.1-.4.1-.8.2-1.1.1-.3.1-.6.2-.9.1-.4.1-.8.2-1.2 0-.3.1-.6.1-.8 0-.5.1-.9.1-1.4 0-.2 0-.5.1-.7 0-.7 0-1.3.1-2v-.1c0-20.7-15.4-37.8-35.3-40.6h-.1c-.6-.1-1.2-.2-1.9-.2h-.6c-.5 0-.9-.1-1.4-.1h-3.8c-.3 0-.6 0-.9.1-.3 0-.5 0-.8.1-.3 0-.6.1-.8.1-.3 0-.5.1-.8.1-.3 0-.6.1-.8.1-.3 0-.5.1-.8.1-.3 0-.6.1-.8.2-.2 0-.5.1-.7.1-.3.1-.5.1-.8.2-.2.1-.5.1-.7.2-.3.1-.5.1-.8.2-.2.1-.5.1-.7.2-.3.1-.5.2-.8.2-.2.1-.5.1-.7.2-.3.1-.5.2-.8.3-.2.1-.5.2-.7.2-.3.1-.5.2-.8.3-.2.1-.4.2-.7.3-.3.1-.5.2-.8.3l-.6.3c-.3.1-.5.3-.8.4l-.6.3c-.3.1-.5.3-.8.4l-.6.3c-.3.1-.5.3-.8.5l-.6.3c-.3.2-.6.4-.8.5-.2.1-1.7 1.2-1.7 1.2s-7.5-5.7-10.5-7.2-6.5.6-6.5 4v36.6c0 21.7 16.9 39.5 38.3 40.9h4.7c.4 0 .7 0 1.1-.1.3 0 .7 0 1-.1.4 0 .7-.1 1.1-.1.3 0 .7-.1 1-.1.3-.1.7-.1 1-.2.3-.1.7-.1 1-.2.3-.1.7-.2 1-.2.3-.1.6-.1 1-.2l1-.3.9-.3 1-.3.9-.3c.3-.1.6-.2 1-.4.3-.1.6-.2.9-.4.3-.1.6-.3.9-.4.3-.1.6-.3.9-.4.3-.1.6-.3.9-.5.3-.1.6-.3.9-.4.3-.2.6-.3.9-.5.3-.2.6-.3.8-.5.3-.2.6-.4.9-.5.3-.2.5-.3.8-.5.3-.2.6-.4.8-.6.3-.2.5-.4.8-.6.3-.2.5-.4.8-.6.3-.2.5-.4.8-.6.3-.2.5-.4.8-.7.2-.2.5-.4.7-.6.3-.2.5-.5.7-.7.2-.2.5-.4.7-.7l.7-.7c.2-.2.4-.5.7-.7-.1-.3.1-.5.4-.8z" class="st0"/>
  <path d="M44.4 71.2c-2 0-4.1-.8-5.7-2.3L26 56.1c-3.1-3.1-3.1-8.2 0-11.3 3.1-3.1 8.2-3.1 11.3 0l7.1 7.1 18.1-18.1c3.1-3.1 8.2-3.1 11.3 0 3.1 3.1 3.1 8.2 0 11.3L50 68.8c-1.5 1.6-3.6 2.4-5.6 2.4z" class="st1"/>
</svg>
