<?xml version="1.0" standalone="no"?>
<!DOCTYPE svg PUBLIC "-//W3C//DTD SVG 20010904//EN"
 "http://www.w3.org/TR/2001/REC-SVG-20010904/DTD/svg10.dtd">
<svg version="1.0" xmlns="http://www.w3.org/2000/svg"
 width="447.000000pt" height="447.000000pt" viewBox="0 0 447.000000 447.000000"
 preserveAspectRatio="xMidYMid meet">
<metadata>
Created by potrace 1.11, written by Peter Selinger 2001-2013
</metadata>
<g transform="translate(0.000000,447.000000) scale(0.100000,-0.100000)"
fill="#000000" stroke="none">
<path d="M890 4446 c-131 -45 -215 -113 -282 -227 -71 -119 -68 -38 -65 -1664
l2 -1460 27 -68 c45 -119 118 -204 223 -262 121 -67 61 -65 1304 -65 1114 0
1124 0 1195 21 171 51 283 162 341 339 15 45 18 91 19 265 0 115 -2 222 -6
236 -5 15 -20 40 -35 56 -77 81 -201 69 -262 -25 -23 -35 -24 -43 -26 -242 -2
-214 -5 -235 -49 -272 -58 -51 4 -48 -1168 -48 -601 0 -1100 2 -1108 3 -40 7
-92 49 -110 89 -17 41 -18 101 -18 1463 0 1555 -4 1460 59 1516 16 15 44 29
61 33 57 11 2194 7 2225 -5 35 -13 82 -56 96 -89 6 -16 11 -196 12 -510 1
-432 3 -488 18 -517 59 -111 223 -116 287 -10 19 31 20 54 20 547 0 552 0 552
-53 656 -50 99 -148 185 -268 236 l-54 23 -1160 2 -1160 2 -65 -23z"/>
<path d="M2001 3897 c-1 -29 27 -75 50 -82 24 -8 69 2 69 15 0 5 13 2 28 -7
41 -24 80 -11 98 32 16 39 18 71 2 38 -17 -35 -59 -45 -97 -21 -17 11 -31 15
-31 10 0 -6 -12 -14 -27 -20 -34 -11 -67 1 -81 32 -9 18 -11 18 -11 3z"/>
<path d="M2094 3787 l-31 -22 4 -230 c2 -126 5 -280 7 -342 l3 -112 -27 22
c-43 36 -95 108 -125 172 -25 56 -52 183 -49 232 7 103 34 196 76 257 l21 31
-37 -35 c-214 -201 -180 -565 67 -728 l40 -27 -34 -7 c-19 -5 -61 -9 -94 -9
-89 -2 -35 -19 82 -26 91 -6 91 -6 109 -39 10 -19 21 -34 24 -34 3 0 14 15 24
34 l18 33 92 5 c113 6 164 27 71 29 -33 1 -73 4 -89 8 l-29 6 56 38 c66 46
134 135 165 219 26 69 35 184 20 256 -14 64 -59 157 -105 214 -44 54 -64 63
-36 16 119 -204 72 -485 -108 -646 l-25 -22 3 127 c1 71 4 224 6 340 l4 213
-33 25 c-18 14 -34 25 -36 24 -2 0 -17 -11 -34 -22z"/>
<path d="M1844 3770 c-256 -128 -303 -467 -91 -661 54 -50 64 -49 31 2 -54 86
-69 151 -68 289 2 157 51 273 153 360 25 22 43 40 40 40 -3 0 -33 -13 -65 -30z"/>
<path d="M2380 3769 c57 -43 120 -137 145 -214 20 -63 27 -214 13 -286 -12
-60 -51 -151 -76 -182 -8 -9 -13 -19 -11 -22 3 -2 30 20 61 50 57 55 112 149
123 210 6 32 7 131 2 155 -29 128 -100 225 -207 283 -77 42 -101 44 -50 6z"/>
<path d="M3348 2804 c-2 -1 -16 -5 -32 -8 -92 -17 -191 -70 -262 -142 -30 -29
-104 -135 -104 -148 0 -3 -5 -17 -12 -33 -53 -130 -40 -308 31 -429 l19 -31
-278 -277 -279 -276 23 -52 c19 -43 31 -55 79 -80 l56 -29 280 279 280 280 29
-19 c82 -49 226 -71 337 -50 200 37 376 215 410 416 46 277 -141 541 -420 593
-54 11 -149 14 -157 6z m167 -149 c55 -14 145 -67 181 -108 20 -22 50 -69 67
-106 28 -59 31 -76 31 -156 0 -80 -4 -98 -32 -156 -39 -81 -98 -141 -182 -182
-59 -29 -73 -32 -160 -32 -82 0 -103 4 -152 27 -241 112 -301 421 -118 608 95
97 236 138 365 105z"/>
<path d="M1114 2586 c-2 -6 -3 -39 -1 -74 l2 -63 730 0 c402 0 740 0 753 1 22
0 23 3 20 73 l-3 72 -748 1 c-530 0 -750 -2 -753 -10z"/>
<path d="M1113 2225 c0 -74 0 -75 26 -75 14 -1 353 -2 754 -3 l727 -2 0 77 0
77 -754 0 -753 0 0 -74z"/>
<path d="M1114 1985 c-1 -5 -2 -37 -1 -70 l2 -60 615 0 615 0 0 70 -1 70 -613
0 c-401 0 -615 -3 -617 -10z"/>
<path d="M1295 1583 c-44 -41 -90 -102 -135 -179 -30 -52 -37 -71 -29 -86 20
-37 45 -20 102 70 63 97 103 147 109 135 3 -4 6 -29 7 -54 8 -151 49 -166 152
-54 23 25 46 45 51 45 5 0 6 -22 2 -50 -6 -46 -5 -50 17 -59 27 -10 96 12 116
37 19 23 -2 54 -35 50 -19 -2 -26 1 -24 11 4 20 -19 74 -37 87 -26 20 -64 5
-118 -49 -29 -28 -53 -47 -54 -42 0 6 -2 31 -4 56 -7 103 -59 139 -120 82z"/>
<path d="M714 466 c-21 -9 -22 -15 -18 -123 2 -63 8 -123 14 -133 17 -32 46
-41 126 -41 42 0 86 -5 99 -11 67 -30 108 37 65 107 -23 37 -99 105 -118 105
-9 0 -26 -34 -25 -50 1 -3 -6 -14 -13 -25 -8 -11 -14 -30 -14 -42 0 -18 -6
-23 -27 -23 -52 0 -56 9 -56 129 0 62 -3 113 -6 115 -3 1 -16 -2 -27 -8z m199
-212 c-8 -21 -43 -18 -43 5 0 11 6 21 13 24 17 6 37 -12 30 -29z m67 -46 c0
-9 -24 -11 -32 -2 -3 3 -3 15 0 26 5 20 6 20 19 3 7 -11 13 -22 13 -27z"/>
<path d="M1302 467 c-21 -10 -22 -14 -18 -101 2 -50 5 -117 5 -148 1 -59 5
-65 30 -49 11 7 15 38 16 138 1 159 -2 174 -33 160z"/>
<path d="M1804 470 c-34 -13 -33 -9 -20 -205 2 -33 5 -70 5 -82 1 -16 6 -20
21 -16 19 5 20 14 20 159 0 85 -1 154 -2 153 -2 0 -12 -4 -24 -9z"/>
<path d="M2973 466 c-20 -9 -21 -16 -18 -118 3 -130 15 -164 58 -174 41 -9
109 -6 121 6 5 5 17 5 28 -1 27 -14 116 -13 134 2 11 9 18 9 26 1 15 -15 65
-16 73 -2 4 7 11 7 18 2 7 -5 22 -12 35 -15 50 -12 97 74 69 128 -14 29 -15
29 -32 12 -10 -11 -13 -25 -9 -41 8 -35 -2 -49 -27 -36 -11 6 -19 21 -19 36 0
20 -4 25 -16 20 -9 -3 -18 -6 -20 -6 -2 0 -4 -9 -4 -19 0 -20 -32 -37 -50 -26
-5 3 -10 17 -10 30 0 30 -27 23 -40 -10 -8 -22 -40 -34 -72 -27 -13 2 -15 8
-8 26 11 30 -16 86 -42 86 -37 0 -74 -52 -69 -97 2 -16 -28 -21 -61 -10 -31
10 -30 5 -32 139 0 53 -3 98 -6 100 -3 2 -15 0 -27 -6z m200 -193 c4 -3 2 -12
-4 -20 -9 -10 -15 -10 -25 -2 -8 6 -11 15 -8 20 6 11 28 12 37 2z"/>
<path d="M2062 458 c-17 -17 -15 -32 7 -45 15 -10 22 -9 31 3 10 11 16 12 26
3 11 -9 18 -8 29 1 20 17 19 27 -6 41 -16 8 -23 8 -29 -1 -5 -9 -13 -9 -27 -2
-14 8 -23 8 -31 0z"/>
<path d="M2790 449 c-9 -15 -8 -24 1 -35 17 -20 37 -17 50 8 10 18 8 24 -7 35
-24 18 -31 17 -44 -8z"/>
<path d="M3124 429 c-18 -20 -18 -21 6 -39 14 -10 25 -18 25 -17 0 1 8 12 18
23 17 21 17 22 -7 37 -22 15 -25 15 -42 -4z"/>
<path d="M3371 437 c-16 -20 20 -52 37 -35 17 17 15 35 -4 42 -21 8 -20 8 -33
-7z"/>
<path d="M2401 396 c-10 -12 -16 -13 -32 -3 -16 10 -21 9 -29 -3 -12 -19 -9
-31 13 -44 13 -8 20 -7 27 3 7 12 11 13 24 1 9 -7 18 -11 19 -9 1 2 8 11 15
20 10 13 8 19 -7 33 -16 14 -20 15 -30 2z"/>
<path d="M3352 380 c-9 -15 -7 -21 13 -34 21 -14 24 -14 29 1 5 13 9 13 22 2
14 -11 18 -10 30 6 13 17 13 21 -2 32 -13 10 -21 10 -31 1 -11 -9 -19 -9 -32
-1 -14 9 -20 7 -29 -7z"/>
<path d="M1122 352 c-8 -25 -6 -30 24 -52 18 -14 36 -32 39 -40 13 -31 -54
-52 -95 -30 -15 8 -21 6 -31 -12 -30 -57 101 -79 148 -24 12 15 23 40 23 55 0
39 -63 129 -92 131 -3 0 -10 -12 -16 -28z"/>
<path d="M1438 355 c-11 -25 -9 -29 26 -59 50 -41 47 -68 -7 -74 -21 -2 -45 2
-53 9 -13 10 -17 10 -25 -2 -12 -19 -11 -46 2 -54 6 -4 32 -9 59 -10 40 -3 53
0 74 20 25 23 30 39 26 80 -2 27 -45 92 -70 105 -17 9 -22 7 -32 -15z"/>
<path d="M2080 353 c-34 -43 -37 -73 -10 -95 16 -13 32 -17 49 -13 18 4 23 3
16 -4 -6 -6 -35 -11 -64 -12 -47 -2 -57 1 -77 24 -22 26 -22 26 -40 6 -15 -17
-16 -25 -6 -51 7 -19 8 -37 2 -48 -8 -15 -62 -56 -103 -77 -17 -9 -17 -11 5
-25 23 -15 27 -14 71 13 29 18 54 43 64 65 12 24 23 34 38 33 108 -8 155 19
155 88 0 47 -29 103 -58 114 -17 6 -26 2 -42 -18z m43 -48 c1 -5 -6 -11 -15
-13 -11 -2 -18 3 -18 13 0 17 30 18 33 0z"/>
<path d="M2800 355 c-21 -23 -32 -86 -17 -101 4 -4 21 -7 37 -7 17 0 30 -4 30
-8 0 -11 -75 -15 -109 -6 -25 6 -31 13 -31 33 0 20 -4 25 -16 20 -9 -3 -18 -6
-20 -6 -3 0 -9 -11 -14 -25 -8 -20 -16 -25 -43 -25 -38 0 -58 15 -49 38 4 12
1 14 -12 9 -10 -4 -22 -7 -27 -7 -5 0 -9 -7 -9 -15 0 -26 -56 -42 -138 -40
-96 2 -126 16 -119 55 5 22 2 29 -13 33 -16 4 -22 -3 -32 -34 -14 -49 1 -82
46 -100 46 -20 163 -19 225 1 44 15 57 16 77 5 17 -9 37 -10 67 -3 51 11 52
11 102 1 94 -19 165 17 165 85 0 45 -29 102 -57 113 -15 6 -27 1 -43 -16z m43
-50 c1 -5 -6 -11 -15 -13 -11 -2 -18 3 -18 13 0 17 30 18 33 0z"/>
<path d="M1665 270 c-16 -18 -17 -22 -2 -52 14 -30 14 -34 -3 -58 -11 -15 -39
-38 -65 -51 -49 -26 -52 -31 -30 -49 23 -19 62 -4 109 44 51 51 60 89 35 146
-10 22 -20 40 -22 40 -2 0 -12 -9 -22 -20z"/>
<path d="M2586 111 c-17 -19 -17 -20 4 -31 15 -8 25 -9 33 -1 6 6 16 7 28 0
14 -7 21 -5 29 10 8 17 6 22 -11 32 -17 8 -23 8 -30 -2 -6 -10 -11 -10 -22 -1
-11 9 -18 8 -31 -7z"/>
</g>
</svg>
